<svg viewBox="0 0 258.62 135.05" xmlns="http://www.w3.org/2000/svg"><path d="m62.58 135.69c-22.82 0-41.31 18-41.31 40.18s18.49 40.13 41.31 40.13 41.32-18 41.32-40.17-18.5-40.14-41.32-40.14zm0 67.79a27.52 27.52 0 1 1 28-27.52 27.76 27.76 0 0 1 -28 27.52z" stroke="#000" stroke-linejoin="bevel" stroke-width=".5" transform="translate(-21.02 -82)"/><path d="m237.75 136.45c-22.82 0-41.32 18-41.32 40.18s18.5 40.17 41.32 40.17 41.32-18 41.32-40.17-18.5-40.18-41.32-40.18zm0 67.79a27.52 27.52 0 1 1 28-27.52 27.76 27.76 0 0 1 -28 27.52z" stroke="#fff" stroke-linejoin="bevel" stroke-width=".5" transform="translate(-21.02 -82)"/><ellipse cx="41.95" cy="93.68" rx="14.28" ry="13.71" stroke="#f00" stroke-linecap="round" stroke-linejoin="round" stroke-width=".18"/><ellipse cx="216.17" cy="94.06" rx="14.28" ry="13.71" stroke="#f00" stroke-linecap="round" stroke-linejoin="round" stroke-width=".18"/><path d="m48.61 91.39 43.41-57.88-13.32-5.71-38.08 58.64z"/><path d="m136.41 182.15c2.41 1 14.52.7 17.35-.76h45.72l45.32-69.31h-98.63v32.84c-.63-.06-1.26-.09-1.91-.09-11.14 0-20.18 8.7-20.18 19.42a19.44 19.44 0 0 0 12.33 17.9" opacity=".99" transform="translate(-21.02 -82)"/><path d="m184.94 90.25h50.15v10.28h-50.15z"/><path d="m209.69 85.3 9.14-2.28-8.76-24.76-10.66 5.33z"/><path d="m101.16 2.29 4.95-.77 8.38-1.52 2.67 1.9 1.14 3.05-20.18 5.33-3.43 5.71 8.76 3.81 20.56 1.52 7.24.77 6.47 2.28 6.85 4.19 4.57 6.85-33.89 35.04-7.23-2.67-.38-5.71-4.57-.76-5.71-.38-5.72-2.29-4.19-3.8-5.33-9.14-3.42-4.95-3.81-1.91-10.67.38-3.42-4.19-1.53-4.95v-4.95l.39-4.19 1.52-4.95 3.04-2.66 8.76.38 6.1 3.04 4.95 4.19 2.66-3.42 3.81-9.14 3.05-3.81 3.04-1.14z"/><path d="m219.78 60.55-18.28 1.14-8.75-23.61 24.37-6.85 6.09-1.15 4.19 19.04 8 2.67 5.33 3.05 4.95 3.42 5.33 5.33 3.43 4.57 3.42 8 .77 4.19-11.05 1.52z"/><path d="m120.58 56.36h14.85v11.42h-14.85z"/><path d="m117.73 90.63h72.35v9.71h-72.35z"/><g fill="#ed1c24"><path d="m105.62 29.99h5.24v20.94h-5.24z"/><path d="m126.63 111.99h5.24v20.94h-5.24z" transform="matrix(0 1 -1 0 230.7 -88.78)"/></g></svg>