<svg id="Layer_1" data-name="Layer 1" xmlns="http://www.w3.org/2000/svg" viewBox="0 0 258.62 135.05"><defs><style>.cls-1{stroke:#000;}.cls-1,.cls-2{stroke-linejoin:bevel;stroke-width:0.5px;}.cls-2{stroke:#fff;}.cls-3{stroke:red;stroke-linecap:round;stroke-linejoin:round;stroke-width:0.18px;}.cls-4{opacity:0.99;isolation:isolate;}.cls-5{fill:#ed1c24;}</style></defs><title>step_4</title><g id="layer1"><g id="g4564"><path id="path4540" class="cls-1" d="M62.58,135.69c-22.82,0-41.31,18-41.31,40.18S39.76,216,62.58,216s41.32-18,41.32-40.17S85.4,135.69,62.58,135.69Zm0,67.79a27.52,27.52,0,1,1,28-27.52A27.76,27.76,0,0,1,62.58,203.48Z" transform="translate(-21.02 -82)"/><path id="path4542" class="cls-2" d="M237.75,136.45c-22.82,0-41.32,18-41.32,40.18s18.5,40.17,41.32,40.17,41.32-18,41.32-40.17S260.57,136.45,237.75,136.45Zm0,67.79a27.52,27.52,0,1,1,28-27.52A27.76,27.76,0,0,1,237.75,204.24Z" transform="translate(-21.02 -82)"/><ellipse id="ellipse4544" class="cls-3" cx="41.95" cy="93.68" rx="14.28" ry="13.71"/><ellipse id="ellipse4546" class="cls-3" cx="216.17" cy="94.06" rx="14.28" ry="13.71"/><polygon id="polygon4548" points="48.61 91.39 92.02 33.51 78.7 27.8 40.62 86.44 48.61 91.39"/><path id="path4550" class="cls-4" d="M136.41,182.15c2.41,1,14.52.7,17.35-.76h45.72l45.32-69.31H146.17v32.84c-.63-.06-1.26-.09-1.91-.09-11.14,0-20.18,8.7-20.18,19.42a19.44,19.44,0,0,0,12.33,17.9" transform="translate(-21.02 -82)"/><rect id="rect4552" x="184.94" y="90.25" width="50.15" height="10.28"/><polygon id="polygon4554" points="209.69 85.3 218.83 83.02 210.07 58.26 199.41 63.59 209.69 85.3"/><polygon id="polygon4556" points="101.16 2.29 106.11 1.52 114.49 0 117.16 1.9 118.3 4.95 98.12 10.28 94.69 15.99 103.45 19.8 124.01 21.32 131.25 22.09 137.72 24.37 144.57 28.56 149.14 35.41 115.25 70.45 108.02 67.78 107.64 62.07 103.07 61.31 97.36 60.93 91.64 58.64 87.45 54.84 82.12 45.7 78.7 40.75 74.89 38.84 64.22 39.22 60.8 35.03 59.27 30.08 59.27 25.13 59.66 20.94 61.18 15.99 64.22 13.33 72.98 13.71 79.08 16.75 84.03 20.94 86.69 17.52 90.5 8.38 93.55 4.57 96.59 3.43 101.16 2.29"/><polygon id="polygon4558" points="219.78 60.55 201.5 61.69 192.75 38.08 217.12 31.23 223.21 30.08 227.4 49.12 235.4 51.79 240.73 54.84 245.68 58.26 251.01 63.59 254.44 68.16 257.86 76.16 258.63 80.35 247.58 81.87 219.78 60.55"/><rect id="rect4560" x="120.58" y="56.36" width="14.85" height="11.42"/><rect id="rect4562" x="117.73" y="90.63" width="72.35" height="9.71"/></g></g><rect class="cls-5" x="105.62" y="29.99" width="5.24" height="20.94"/><rect class="cls-5" x="126.63" y="111.99" width="5.24" height="20.94" transform="translate(230.7 -88.78) rotate(90)"/></svg>