<svg id="Layer_1" data-name="Layer 1" xmlns="http://www.w3.org/2000/svg" viewBox="0 0 288 288"><defs><style>.cls-1{fill:none;stroke:#000;stroke-miterlimit:10;stroke-width:10px;}.cls-2{fill:#e0e0e0;}.cls-3{fill:#bfbfbf;}.cls-4{fill:gray;}</style></defs><title>step_2</title><circle class="cls-1" cx="144" cy="144" r="139"/><path class="cls-2" d="M76.85,107.52H175a0,0,0,0,1,0,0v19.3a0,0,0,0,1,0,0H76.85a8.31,8.31,0,0,1-8.31-8.31v-2.69a8.31,8.31,0,0,1,8.31-8.31Z" transform="translate(112.52 -57.79) rotate(45)"/><path class="cls-3" d="M102.14,93.21H208.94a0,0,0,0,1,0,0v18.65a0,0,0,0,1,0,0H102.14a8.48,8.48,0,0,1-8.48-8.48v-1.7A8.48,8.48,0,0,1,102.14,93.21Z" transform="translate(247.84 -54.76) rotate(90)"/><path class="cls-4" d="M128.81,94.91H235.6a0,0,0,0,1,0,0v18.65a0,0,0,0,1,0,0H128.81a8.48,8.48,0,0,1-8.48-8.48v-1.7A8.48,8.48,0,0,1,128.81,94.91Z" transform="translate(351.22 -3.78) rotate(120)"/><path d="M151.62,122.71h106a0,0,0,0,1,0,0v18.71a0,0,0,0,1,0,0h-106a8.46,8.46,0,0,1-8.46-8.46v-1.79A8.46,8.46,0,0,1,151.62,122.71Z" transform="translate(430.9 166.82) rotate(156.39)"/><path d="M82.33,135.1h74.62a0,0,0,0,1,0,0v18.68a0,0,0,0,1,0,0H82.33a7.24,7.24,0,0,1-7.24-7.24v-4.21a7.24,7.24,0,0,1,7.24-7.24Z" transform="translate(33.08 -30.09) rotate(14.23)"/></svg>