<svg id="Layer_1" data-name="Layer 1" xmlns="http://www.w3.org/2000/svg" viewBox="0 0 288 192"><defs><style>.cls-1{stroke:#000;stroke-miterlimit:10;stroke-width:2px;}</style></defs><title>step_3</title><path d="M159,95.87a4.53,4.53,0,0,0-4.4-4.65l-4.22-.12h-.3l-4.22.12a4.53,4.53,0,0,0-4.4,4.65L143,149.24l7.25-.21,7.24.21Z" transform="translate(-7 -54.28)"/><circle class="cls-1" cx="143.27" cy="109.16" r="7.98"/><path d="M218,95.87a4.53,4.53,0,0,0-4.4-4.65l-4.22-.12H209l-4.22.12a4.53,4.53,0,0,0-4.4,4.65l1.53,53.37,7.24-.21,7.24.21Z" transform="translate(-7 -54.28)"/><circle class="cls-1" cx="202.18" cy="109.16" r="7.98"/><path d="M100.13,95.87a4.53,4.53,0,0,0-4.4-4.65l-4.22-.12h-.3L87,91.22a4.52,4.52,0,0,0-4.39,4.65l1.52,53.37,7.25-.21,7.24.21Z" transform="translate(-7 -54.28)"/><circle class="cls-1" cx="84.36" cy="109.16" r="7.98"/><g id="g3039"><path id="path3041" d="M69.4,207.88a24.07,24.07,0,0,1-24-24V78.28a24.07,24.07,0,0,1,24-24H232.6a24.07,24.07,0,0,1,24,24v105.6a24.07,24.07,0,0,1-24,24ZM64.6,78.28v105.6a4.87,4.87,0,0,0,4.8,4.8H232.6a4.87,4.87,0,0,0,4.8-4.8V78.28a4.87,4.87,0,0,0-4.8-4.8H69.4a4.87,4.87,0,0,0-4.8,4.8ZM271,217.48h24v14.4q0,6-7.05,10.2T271,246.28H31q-9.9,0-16.95-4.2t-7-10.2v-14.4H271Zm-108,14.4a2.4,2.4,0,1,0,0-4.8H139a2.4,2.4,0,1,0,0,4.8Z" transform="translate(-7 -54.28)"/></g></svg>