<svg id="Layer_1" data-name="Layer 1" xmlns="http://www.w3.org/2000/svg" viewBox="0 0 203.47 289.43"><title>step_5</title><path d="M146.77,5.11A40.51,40.51,0,0,0,132.52,9,41.52,41.52,0,0,0,114,27.12a40.88,40.88,0,0,0,5.5,45.62,42.31,42.31,0,0,0,13,9.91,40.86,40.86,0,1,0,22-77.45A50.9,50.9,0,0,0,146.77,5.11Z" transform="translate(-48.54 -5)"/><path d="M120.6,93.53A21.45,21.45,0,0,0,111,98c-2.72,2.15-58.27,58-59.6,59.9-3.44,4.88-3.8,10.4-1,15.22a14.74,14.74,0,0,0,8.28,6.11,16.62,16.62,0,0,0,6.81,0A19,19,0,0,0,71.94,176c.73-.58,8.92-8.7,18.21-18l16.9-17v15.67l0,15.65,43.05,0,43-.07.07-15.61,0-15.58,18.16,18.09c17.42,17.38,18.21,18.12,20,19a13.38,13.38,0,0,0,6.65,1.67,13.84,13.84,0,0,0,10.2-4.45,13.18,13.18,0,0,0,1.29-17c-1.19-1.77-58.22-59-60.43-60.62a22.2,22.2,0,0,0-9.75-4.25C176.51,93,123.31,93,120.6,93.53Z" transform="translate(-48.54 -5)"/><path d="M92.57,202.8c-9.16,9.19-14.72,14.95-15.36,15.88-5.38,8-4.43,20.15,2.27,28.57.81,1,33.16,34.83,39.47,41.26a19.71,19.71,0,0,0,7.66,5.22,11.18,11.18,0,0,0,4.33.61,11.8,11.8,0,0,0,8-2.51,14.77,14.77,0,0,0,6.17-11.6,15.72,15.72,0,0,0-2.73-8.3c-.39-.62-6.59-7-13.76-14.16l-13-13.08,12-11.9,12-11.89L123.2,204.63,107,188.39Z" transform="translate(-48.54 -5)"/><path d="M176.78,204.52c-8.84,8.89-16.1,16.24-16.1,16.35s5.31,5.52,11.81,12l11.83,11.82-12.81,12.83c-7,7.08-13.16,13.37-13.61,14a14.93,14.93,0,0,0-2.88,8.62,12.21,12.21,0,0,0,1.25,5.83,14.06,14.06,0,0,0,15.58,8.15,18.81,18.81,0,0,0,6.52-3.15c1.69-1.35,41.34-42.59,42.63-44.35a26.24,26.24,0,0,0,5.21-14.93,21.65,21.65,0,0,0-1.5-9.39c-1.38-3.37-2-4.07-17.3-19.4l-14.5-14.55Z" transform="translate(-48.54 -5)"/></svg>