<svg id="Layer_1" data-name="Layer 1" xmlns="http://www.w3.org/2000/svg" viewBox="0 0 298.85 278"><defs><style>.cls-1{fill:#fff;}.cls-2{fill:#ed1c24;}</style></defs><title>step_1</title><path d="M36.21,81.78A34.64,34.64,0,1,1,70.85,47.14,34.67,34.67,0,0,1,36.21,81.78Z" transform="translate(-0.08 -11)"/><path d="M36.22,14A33.14,33.14,0,1,1,3.08,47.14,33.18,33.18,0,0,1,36.22,14m0-3A36.14,36.14,0,1,0,72.36,47.14,36.14,36.14,0,0,0,36.22,11Z" transform="translate(-0.08 -11)"/><path d="M262.79,81.78a34.64,34.64,0,1,1,34.63-34.64A34.68,34.68,0,0,1,262.79,81.78Z" transform="translate(-0.08 -11)"/><path d="M262.79,14a33.14,33.14,0,1,1-33.14,33.14A33.17,33.17,0,0,1,262.79,14m0-3a36.14,36.14,0,1,0,36.13,36.14A36.14,36.14,0,0,0,262.79,11Z" transform="translate(-0.08 -11)"/><rect x="230.85" y="93.24" width="66.5" height="137.39" rx="17.15" ry="17.15"/><path d="M280.28,105.74a15.66,15.66,0,0,1,15.64,15.65V224.48a15.66,15.66,0,0,1-15.64,15.65H248.07a15.66,15.66,0,0,1-15.64-15.65V121.39a15.66,15.66,0,0,1,15.64-15.65h32.21m0-3H248.07a18.7,18.7,0,0,0-18.64,18.65V224.48a18.7,18.7,0,0,0,18.64,18.65h32.21a18.7,18.7,0,0,0,18.64-18.65V121.39a18.7,18.7,0,0,0-18.64-18.65Z" transform="translate(-0.08 -11)"/><rect x="248.92" y="223.23" width="30.36" height="53.27" rx="6.68" ry="6.68"/><path d="M272.68,235.73a5.19,5.19,0,0,1,5.18,5.18v39.91a5.19,5.19,0,0,1-5.18,5.18h-17a5.19,5.19,0,0,1-5.18-5.18V240.91a5.19,5.19,0,0,1,5.18-5.18h17m0-3h-17a8.21,8.21,0,0,0-8.18,8.18v39.91a8.21,8.21,0,0,0,8.18,8.18h17a8.21,8.21,0,0,0,8.18-8.18V240.91a8.21,8.21,0,0,0-8.18-8.18Z" transform="translate(-0.08 -11)"/><rect x="25.13" y="226.01" width="30.36" height="49.1" rx="6.37" ry="6.37"/><path d="M49.19,238.51a4.88,4.88,0,0,1,4.87,4.87v36.36a4.87,4.87,0,0,1-4.87,4.87H31.58a4.88,4.88,0,0,1-4.88-4.87V243.38a4.88,4.88,0,0,1,4.88-4.87H49.19m0-3H31.58a7.9,7.9,0,0,0-7.88,7.87v36.36a7.9,7.9,0,0,0,7.88,7.87H49.19a7.89,7.89,0,0,0,7.87-7.87V243.38a7.89,7.89,0,0,0-7.87-7.87Z" transform="translate(-0.08 -11)"/><path d="M21.41,240.25A17.08,17.08,0,0,1,4.35,223.2V121.3a17.08,17.08,0,0,1,17.06-17.06H53.8a17.07,17.07,0,0,1,17,17.06v16l1.12.29a52.31,52.31,0,0,1,39.2,50.44c0,28.77-23.65,52.18-52.71,52.18-.91,0-1.85,0-2.81-.07h-.22a15.71,15.71,0,0,1-1.63.08Z" transform="translate(-0.08 -11)"/><path d="M53.8,105.74A15.58,15.58,0,0,1,69.36,121.3v17.19l2.23.58a50.81,50.81,0,0,1,38.08,49c0,27.95-23,50.68-51.21,50.68-.88,0-1.8,0-2.73-.07h-.22l-.22,0c-.54,0-1,.07-1.49.07H21.41A15.57,15.57,0,0,1,5.86,223.2V121.3a15.57,15.57,0,0,1,15.55-15.56H53.8m0-3H21.41A18.61,18.61,0,0,0,2.86,121.3V223.2a18.61,18.61,0,0,0,18.55,18.55H53.8a17.19,17.19,0,0,0,1.77-.09c1,.05,1.92.08,2.89.08,29.93,0,54.21-24,54.21-53.68a53.79,53.79,0,0,0-40.31-51.89V121.3A18.62,18.62,0,0,0,53.8,102.74Z" transform="translate(-0.08 -11)"/><rect class="cls-1" x="23.57" y="117.67" width="22.04" height="67.42" rx="11.02" ry="11.02" transform="translate(-38.35 3.25) rotate(-15.11)"/><rect class="cls-1" x="50.56" y="147.98" width="22.04" height="67.42" rx="11.02" ry="11.02" transform="translate(-130.13 161.71) rotate(-68.59)"/><rect class="cls-2" x="259.93" y="116.76" width="8.34" height="33.36"/><rect class="cls-2" x="260.01" y="127.76" width="8.34" height="33.36" transform="translate(408.54 -130.73) rotate(90)"/><g id="g3039"><path id="path3041" d="M119.16,105.05A9.12,9.12,0,0,1,110.09,96V56.07A9.1,9.1,0,0,1,119.16,47h61.68a9.1,9.1,0,0,1,9.07,9.07V96a9.12,9.12,0,0,1-9.07,9.07Zm-1.81-49V96a1.84,1.84,0,0,0,1.81,1.81h61.68A1.84,1.84,0,0,0,182.65,96V56.07a1.83,1.83,0,0,0-1.81-1.81H119.16a1.83,1.83,0,0,0-1.81,1.81Zm78,52.61h9.07v5.44q0,2.26-2.66,3.85a12.31,12.31,0,0,1-6.41,1.59h-90.7A12.31,12.31,0,0,1,98.24,118q-2.65-1.59-2.66-3.85v-5.44h99.77Zm-40.82,5.44a.91.91,0,0,0,0-1.82h-9.06a.91.91,0,1,0,0,1.82Z" transform="translate(-0.08 -11)"/></g></svg>